<svg width="233" height="227" viewBox="0 0 233 227" fill="none" xmlns="http://www.w3.org/2000/svg">
<path d="M150.5 3.50395L136 0.503952L116.5 2.00395L99 7.00395L77 18.004L57 33.504L36 56.004L22.5 73.504L12 91.004L4 111.004L0.5 130.004V140.504L2 152.004L7.5 166.504L15 178.504L28 191.004L43.5 201.504L62 209.504L97.5 220.004L149.5 226.504H167L180 225.504L191.5 223.004L204.5 218.004L212.5 212.504L223.5 200.504L227 192.504L230.5 183.504L232.5 170.004V148.504L230.5 137.504L227 123.004L223.5 110.504L221 102.004L212 79.504L198.5 50.504L188 33.004L179.5 21.004L172 14.504L158.5 6.00395L150.5 3.50395Z" fill="black" stroke="black"/>
</svg>
